<?xml version="1.0" standalone="no"?>
<!DOCTYPE svg PUBLIC "-//W3C//DTD SVG 20010904//EN"
 "http://www.w3.org/TR/2001/REC-SVG-20010904/DTD/svg10.dtd">
<svg version="1.0" xmlns="http://www.w3.org/2000/svg"
 width="2154.000000pt" height="2161.000000pt" viewBox="0 0 2154.000000 2161.000000"
 preserveAspectRatio="xMidYMid meet">

<g transform="translate(0.000000,2161.000000) scale(0.100000,-0.100000)"
fill="#000000" stroke="none">
<path d="M7510 14439 c0 -5 5 -7 10 -4 6 3 10 8 10 11 0 2 -4 4 -10 4 -5 0
-10 -5 -10 -11z"/>
<path d="M7408 14433 c7 -3 16 -2 19 1 4 3 -2 6 -13 5 -11 0 -14 -3 -6 -6z"/>
<path d="M7380 14394 c0 -9 -9 -18 -19 -21 -18 -5 -18 -6 2 -26 13 -13 17 -22
9 -25 -7 -2 -12 -10 -12 -18 0 -16 -16 -19 -24 -5 -3 5 1 11 9 15 22 8 18 26
-5 26 -11 0 -20 -6 -20 -14 0 -7 -9 -16 -20 -19 -11 -3 -20 -12 -20 -21 0 -9
-4 -16 -10 -16 -5 0 -10 -5 -10 -11 0 -6 -11 -25 -25 -43 -14 -18 -25 -38 -25
-44 0 -6 -9 -13 -19 -17 -11 -3 -18 -12 -15 -19 3 -7 -2 -16 -10 -19 -9 -4
-16 -13 -16 -21 0 -7 -7 -16 -15 -20 -8 -3 -14 -9 -13 -13 1 -4 -8 -24 -22
-44 -36 -55 -96 -77 -200 -73 -47 2 -195 6 -330 9 -135 3 -342 14 -460 25
-502 47 -1325 63 -1715 35 -115 -8 -225 -15 -243 -15 -18 0 -31 -4 -28 -9 5
-8 -195 -18 -399 -20 -39 0 -47 -3 -35 -11 12 -9 9 -10 -10 -4 -14 3 -31 11
-37 16 -8 7 -13 7 -13 1 0 -6 -34 -11 -76 -12 -41 -1 -86 -6 -98 -11 -13 -4
-28 -5 -35 -1 -15 10 60 21 136 21 33 0 52 4 48 10 -9 14 -281 10 -405 -7
-122 -16 -199 -26 -365 -47 -66 -9 -145 -20 -175 -25 -111 -20 -126 -21 -110
-11 11 7 -1 9 -40 9 -30 -1 -102 3 -160 8 l-105 10 90 2 c68 1 86 4 72 12 -21
12 -167 2 -167 -12 0 -5 -21 -8 -47 -8 l-48 2 40 7 c32 6 34 7 12 9 -21 1 -27
6 -25 19 3 15 -6 17 -82 15 -47 -2 -116 -5 -155 -7 -51 -3 -62 -2 -40 4 19 6
-4 7 -65 3 -52 -4 -122 -8 -155 -8 -33 -1 -87 -7 -120 -14 -57 -10 -140 -14
-102 -4 23 6 22 19 -3 26 -14 4 -20 0 -20 -11 0 -29 -16 -46 -36 -37 -25 10
-90 10 -204 2 -52 -4 -153 -9 -225 -11 -71 -3 -152 -8 -180 -12 l-50 -7 22 22
c12 11 27 21 32 21 26 0 15 15 -11 16 -16 1 -24 -2 -18 -6 23 -14 -32 -18 -80
-6 -31 8 -48 9 -47 3 1 -6 -14 -15 -33 -21 -19 -5 -41 -16 -49 -24 -7 -7 -25
-12 -40 -11 -14 2 -48 -4 -76 -13 -27 -9 -66 -19 -85 -23 -63 -11 -134 -38
-154 -56 -11 -11 -26 -19 -33 -19 -7 0 -13 -4 -13 -9 0 -5 -11 -12 -25 -15
-14 -4 -34 -14 -44 -24 -10 -9 -31 -24 -47 -32 -28 -15 -29 -19 -32 -89 -3
-68 -1 -73 15 -66 10 5 94 34 188 66 312 107 668 181 1075 224 141 15 613 37
648 30 9 -2 100 -6 202 -9 102 -3 223 -12 270 -21 47 -8 112 -15 145 -16 33 0
68 -4 79 -8 20 -8 -8 -14 -254 -56 -80 -14 -153 -28 -162 -31 -28 -9 -42 6
-21 22 17 12 16 13 -7 15 -46 3 -95 -2 -145 -16 -27 -7 -79 -19 -114 -25 -35
-6 -69 -17 -76 -24 -7 -6 -68 -23 -136 -36 -68 -13 -126 -26 -129 -29 -5 -6
-124 -39 -170 -47 -36 -7 -214 -61 -654 -198 -214 -67 -365 -99 -581 -121 -88
-10 -163 -19 -167 -22 -5 -2 -8 -132 -8 -288 l0 -283 53 19 c28 11 66 27 84
34 17 8 37 15 44 15 7 0 65 16 128 35 113 35 153 47 276 80 33 9 68 21 77 26
42 22 218 75 346 105 49 11 69 19 60 25 -9 6 -7 9 10 9 34 0 312 69 343 86 15
7 56 16 91 19 35 3 99 10 143 15 117 15 195 13 201 -4 8 -20 33 -25 177 -36
80 -6 135 -15 148 -24 15 -10 17 -15 7 -18 -18 -7 106 -27 205 -35 49 -3 96
-13 117 -24 19 -10 73 -27 119 -38 121 -30 191 -27 191 6 0 11 5 13 18 8 35
-15 93 -22 125 -15 l32 7 -32 7 c-18 4 -43 5 -55 2 -13 -3 -17 -3 -10 0 6 3
12 14 12 25 0 22 -13 23 -143 9 -95 -10 -190 -3 -181 12 4 6 31 7 64 3 47 -5
60 -4 67 9 5 10 33 19 76 25 38 5 75 15 83 22 11 9 14 9 14 0 0 -7 5 -9 10 -6
13 8 13 52 0 60 -5 3 -10 2 -10 -2 0 -4 -69 -9 -152 -10 -89 0 -140 2 -123 7
l30 8 -30 1 c-49 2 -13 23 47 27 29 2 98 10 153 17 87 12 96 15 65 22 -19 4
-64 8 -100 8 -54 0 -60 2 -35 9 17 5 62 6 100 2 39 -3 67 -3 63 1 -13 14 -93
15 -198 4 -111 -12 -297 -4 -269 12 9 4 57 11 108 15 50 4 94 11 97 15 3 5 19
9 35 9 18 0 28 4 24 10 -4 6 13 10 42 11 26 0 42 3 36 6 -26 10 -12 23 25 24
l37 1 -30 9 c-16 5 -37 7 -45 4 -36 -10 -261 -15 -255 -5 3 5 13 10 21 10 7 0
40 9 71 19 32 11 81 23 110 26 29 4 85 16 125 27 40 11 140 35 221 53 82 18
156 36 165 40 9 3 37 10 62 15 25 5 99 21 165 35 155 33 321 55 415 55 43 0
70 4 62 9 -15 9 210 51 277 51 23 0 40 4 37 8 -5 8 42 17 234 43 41 6 116 17
165 24 235 37 437 63 725 92 249 25 927 25 1150 0 149 -17 332 -44 357 -52 24
-8 1 -35 -29 -35 -24 0 -28 -3 -23 -19 9 -30 -20 -51 -71 -51 -24 0 -44 -4
-44 -10 0 -5 5 -10 10 -10 6 0 10 -5 10 -11 0 -5 -4 -8 -8 -5 -4 2 -14 1 -22
-4 -12 -7 -9 -11 10 -19 25 -10 24 -10 -6 -10 -36 -1 -57 -21 -48 -45 4 -10
-1 -23 -14 -34 -11 -10 -20 -25 -20 -32 3 -41 -3 -50 -29 -50 -20 0 -24 -3
-16 -11 14 -14 -3 -57 -30 -77 -9 -7 -14 -18 -11 -24 4 -6 -1 -8 -14 -4 -21 7
-40 -8 -24 -18 13 -8 2 -59 -15 -69 -11 -7 -11 -12 -2 -23 9 -11 8 -14 -6 -14
-14 0 -15 -3 -5 -15 11 -13 8 -15 -16 -15 -27 -1 -28 -1 -9 -12 19 -12 19 -12
-5 -18 -14 -3 -25 -12 -26 -20 0 -8 -6 -28 -14 -45 -7 -16 -12 -36 -11 -42 1
-7 -4 -13 -10 -13 -7 0 -4 -9 7 -22 19 -21 19 -21 -5 -15 -14 3 -30 2 -37 -4
-7 -5 -36 -18 -65 -29 -30 -11 -46 -19 -37 -20 20 0 32 -16 23 -30 -5 -8 -12
-7 -23 2 -13 11 -15 10 -9 -4 5 -15 1 -17 -26 -13 l-32 5 32 -15 c39 -18 51
-35 25 -35 -28 0 -48 -26 -26 -34 25 -10 41 -7 24 5 -13 9 -13 10 0 6 8 -2 14
-11 12 -19 -1 -9 4 -18 13 -22 17 -6 21 -26 5 -26 -6 0 -17 -6 -24 -12 -11
-11 -11 -17 1 -35 15 -22 14 -23 -17 -30 -27 -5 -30 -8 -18 -17 8 -6 17 -19
21 -29 6 -16 3 -18 -23 -12 -35 8 -38 -3 -10 -33 23 -24 11 -37 -26 -28 -23 6
-23 5 -12 -14 7 -11 17 -20 22 -20 4 0 3 -7 -4 -15 -9 -11 -17 -12 -32 -4 -31
17 -34 2 -5 -27 30 -30 35 -49 11 -40 -9 3 -28 9 -42 12 l-27 5 28 -25 c15
-14 27 -28 27 -32 0 -4 -19 -4 -42 -1 -24 3 -35 3 -25 0 9 -2 17 -9 17 -14 0
-6 8 -18 17 -27 16 -16 15 -17 -18 -23 -25 -4 -30 -7 -17 -13 9 -4 18 -16 21
-26 4 -16 1 -18 -24 -13 -40 8 -37 -10 6 -36 40 -23 45 -38 13 -43 -21 -3 -21
-4 -4 -20 21 -21 13 -38 -17 -38 l-22 -1 23 -18 c31 -26 28 -38 -9 -33 -29 4
-30 3 -20 -16 16 -30 14 -33 -13 -26 -21 5 -24 3 -19 -15 4 -17 1 -21 -17 -21
-19 0 -21 -4 -16 -25 5 -18 2 -25 -9 -25 -17 0 -20 -16 -5 -25 17 -11 11 -23
-20 -38 l-29 -15 -7 34 c-6 30 -38 63 -54 55 -3 -2 -13 -7 -22 -12 -11 -6 -18
-5 -22 4 -4 8 -9 7 -18 -6 -46 -66 -60 -82 -53 -59 8 28 -6 29 -25 0 -8 -12
-23 -30 -32 -40 -10 -10 -18 -22 -18 -28 0 -5 -4 -10 -10 -10 -5 0 -10 -8 -10
-17 0 -14 6 -11 25 12 44 53 47 56 52 52 2 -3 -6 -20 -19 -40 -13 -19 -28 -43
-34 -53 -10 -15 -14 -17 -25 -6 -16 15 -29 16 -29 2 0 -5 6 -10 13 -10 16 0
57 -37 57 -50 0 -16 -22 -11 -36 7 -7 10 -15 15 -19 11 -7 -7 36 -52 65 -68 8
-5 11 -12 7 -16 -5 -5 -12 -2 -17 6 -10 17 -12 15 -34 -27 -18 -35 -41 -45
-31 -14 3 11 1 22 -4 26 -7 3 -8 0 -5 -9 4 -10 -1 -18 -11 -23 -17 -6 -17 -7
0 -19 16 -12 16 -15 -5 -43 -12 -17 -17 -31 -11 -31 5 0 12 4 15 8 3 5 23 7
46 6 33 -2 48 -10 87 -49 38 -39 42 -46 22 -40 -13 4 -32 14 -41 23 -10 8 -18
11 -18 7 0 -5 15 -22 33 -37 21 -19 28 -31 20 -34 -18 -8 -16 -37 1 -31 10 4
13 1 9 -9 -3 -7 1 -14 8 -14 7 0 10 -3 7 -6 -4 -3 -17 2 -31 11 -35 23 -44 2
-10 -23 16 -11 25 -24 21 -28 -5 -4 -16 0 -26 9 -23 21 -32 21 -32 2 0 -8 4
-15 8 -15 11 0 52 -35 52 -44 0 -14 -22 -5 -46 19 -14 14 -30 25 -37 25 -7 0
2 -11 19 -25 17 -13 34 -35 37 -47 6 -21 4 -21 -19 5 -24 28 -32 21 -14 -13 8
-15 6 -17 -10 -13 -28 8 -25 -10 9 -46 17 -18 28 -38 25 -46 -9 -21 30 -7 57
21 12 13 17 24 11 24 -7 0 -12 5 -12 10 0 6 7 10 15 10 9 0 12 6 9 15 -4 8 1
17 9 21 9 3 13 13 10 25 -3 11 0 19 7 19 7 0 10 7 6 15 -3 9 0 15 10 15 11 0
13 6 9 20 -3 11 -3 20 2 20 9 0 33 48 33 67 0 7 7 10 15 7 10 -4 15 0 15 15 0
12 3 21 8 21 10 0 31 50 36 86 2 16 15 52 29 79 13 28 27 74 31 103 4 30 11
61 15 70 5 10 13 28 18 42 6 14 15 37 22 53 6 15 16 39 22 55 6 15 15 35 20
44 5 10 9 25 9 33 0 9 7 18 15 21 9 4 13 13 10 24 -3 9 1 23 10 30 8 7 12 17
9 22 -6 9 1 29 27 80 5 10 9 24 9 33 0 8 9 19 20 25 11 6 20 19 20 29 0 11 7
22 16 25 9 3 14 13 10 21 -3 8 1 21 9 29 8 8 15 21 15 29 0 8 7 20 15 27 8 7
15 19 15 27 0 8 21 58 47 111 26 54 46 100 45 105 -1 4 2 7 7 7 5 0 12 13 16
30 4 16 12 33 19 37 13 8 126 227 126 245 0 5 18 40 39 76 21 37 53 94 71 127
165 307 210 377 300 466 112 111 172 121 380 61 58 -16 150 -42 205 -57 55
-15 143 -40 195 -55 52 -15 140 -40 195 -56 55 -15 122 -38 148 -50 26 -12 78
-30 114 -39 37 -9 90 -28 117 -41 27 -13 58 -24 67 -24 10 0 21 -4 24 -10 3
-5 15 -10 26 -10 10 0 86 -30 167 -66 352 -157 610 -288 645 -327 16 -18 26
-26 22 -19 -6 11 -3 12 14 2 12 -6 19 -15 16 -21 -4 -5 1 -9 9 -9 9 0 16 -3
16 -7 0 -5 24 -21 53 -37 28 -16 70 -41 92 -56 22 -15 65 -41 95 -57 90 -48
160 -96 230 -159 19 -17 89 -69 155 -116 66 -47 134 -98 150 -112 17 -14 33
-26 36 -26 4 0 9 -9 12 -20 3 -11 17 -24 31 -30 27 -10 28 -13 30 -65 1 -24 5
-30 22 -29 14 0 20 -4 17 -13 -3 -7 2 -13 11 -13 9 0 16 -4 16 -8 0 -5 14 -18
31 -31 l30 -23 6 21 c7 27 16 26 50 -5 19 -17 24 -27 15 -31 -16 -6 -5 -23 17
-23 9 0 34 -19 56 -42 22 -24 42 -42 46 -41 13 4 69 -54 69 -71 0 -9 8 -16 20
-16 10 0 23 -6 27 -13 4 -7 18 -20 29 -28 12 -8 56 -46 99 -84 42 -39 81 -72
85 -75 9 -5 13 -32 11 -69 -1 -18 -5 -22 -21 -18 -13 3 -20 0 -20 -9 0 -16 37
-19 42 -3 2 7 17 7 48 0 37 -8 56 -22 105 -76 33 -36 64 -65 69 -65 14 0 257
-256 321 -338 27 -35 46 -53 82 -80 17 -13 34 -35 37 -48 4 -13 11 -24 16 -24
6 0 19 -9 31 -21 11 -11 28 -19 37 -17 13 3 9 8 -15 23 -41 24 -53 50 -20 41
13 -3 27 -3 30 0 8 8 -43 54 -59 54 -8 0 -14 7 -14 15 0 9 9 15 25 15 28 0 33
15 9 24 -9 4 -14 9 -11 12 8 9 90 -18 119 -40 15 -11 31 -16 35 -12 5 4 -1 14
-12 21 -11 8 -25 18 -30 23 -6 5 -19 13 -30 19 -18 11 -18 12 -3 18 9 4 30 -1
46 -10 23 -14 33 -15 48 -7 18 11 18 11 -2 12 -25 0 -62 26 -52 35 7 7 34 -5
98 -41 14 -7 30 -12 37 -9 17 6 25 -27 28 -118 2 -44 9 -84 15 -91 9 -8 10 -4
4 18 -7 27 -5 29 20 22 16 -4 26 -2 26 5 0 14 -25 39 -39 39 -6 0 -11 5 -11
11 0 7 11 8 30 4 18 -4 36 -2 44 4 14 12 76 -12 76 -30 0 -5 10 -9 23 -9 12 0
31 -6 42 -14 11 -7 31 -17 45 -21 14 -4 33 -15 43 -23 12 -11 21 -13 25 -6 10
14 42 25 42 14 0 -5 -4 -12 -10 -15 -24 -15 -6 -22 41 -17 41 4 50 2 44 -8 -5
-9 -4 -11 4 -6 13 8 81 -11 81 -24 0 -4 8 -10 18 -14 9 -3 24 -9 32 -12 8 -3
0 4 -17 16 -18 12 -33 26 -33 31 0 10 68 -20 88 -38 16 -16 29 -16 37 -3 9 15
25 12 25 -4 0 -8 4 -18 10 -21 6 -3 7 1 4 9 -4 11 0 16 12 16 17 0 16 1 -2 18
-10 10 -28 22 -39 27 -19 8 -19 8 -1 13 10 2 22 -2 27 -9 6 -10 12 -9 28 5 12
11 25 15 33 10 29 -18 236 -76 281 -78 26 -2 50 -6 55 -11 4 -4 -8 -4 -25 0
-19 4 -33 3 -33 -3 0 -14 44 -31 102 -38 29 -4 60 -10 68 -14 8 -4 71 -20 140
-34 105 -23 126 -25 134 -13 6 10 17 12 35 6 84 -26 111 -31 126 -25 9 3 46
-1 83 -9 37 -8 117 -22 177 -31 61 -9 155 -23 210 -31 55 -8 119 -17 142 -20
24 -3 41 -8 38 -13 -2 -4 6 -5 19 -3 23 5 24 3 16 -30 -19 -88 -163 -267 -245
-307 -45 -22 -57 -22 -227 -17 -48 1 -68 -2 -68 -10 0 -7 11 -15 25 -19 24 -6
35 -24 15 -24 -5 0 -10 -3 -10 -8 0 -12 58 -33 101 -37 23 -1 45 -9 50 -16 7
-12 9 -12 9 0 0 11 4 11 19 -3 10 -9 25 -14 34 -10 9 3 24 1 34 -6 14 -9 8
-10 -34 -7 -40 3 -53 1 -53 -9 0 -8 7 -14 15 -14 20 0 65 -21 65 -31 0 -4 -10
-11 -22 -15 l-21 -6 23 -18 23 -18 -21 -6 c-12 -4 -22 -11 -22 -16 0 -7 23
-20 35 -20 3 0 23 28 46 63 23 34 53 73 66 86 13 14 32 38 41 53 9 15 20 28
23 28 4 0 27 35 50 78 23 42 55 95 69 117 15 22 27 42 27 45 0 8 41 83 58 104
22 28 94 35 453 42 369 6 394 8 611 30 110 12 24 21 -197 23 -125 0 -281 5
-347 11 -66 5 -186 15 -267 21 -91 7 -154 17 -165 25 -17 13 -17 13 1 14 11 0
16 5 13 14 -3 7 1 23 9 34 8 12 17 38 19 59 3 21 14 65 25 97 11 33 20 65 20
73 0 7 5 13 10 13 12 0 13 27 1 34 -9 6 -81 -132 -81 -156 0 -9 -3 -9 -10 2
-8 12 -10 9 -10 -13 0 -15 -3 -26 -7 -25 -17 5 -53 -24 -53 -42 0 -11 -4 -20
-8 -20 -5 0 -14 -16 -22 -35 -7 -19 -22 -38 -33 -41 -33 -10 -526 68 -757 121
-36 8 -96 21 -135 30 -80 17 -265 64 -375 95 -41 12 -88 26 -105 30 -99 29
-261 82 -325 108 -41 17 -124 49 -185 72 -113 42 -269 106 -340 139 -96 45
-163 74 -200 89 -22 9 -56 24 -75 35 -19 11 -75 41 -125 66 -49 26 -113 65
-142 86 -28 21 -67 48 -86 60 -120 70 -178 125 -133 125 21 0 31 21 15 31 -11
7 -9 9 6 10 11 0 0 7 -25 15 -25 8 -57 12 -72 10 -18 -4 -28 0 -33 12 -6 15
-8 15 -15 -3 -8 -19 -8 -19 -18 5 -7 17 -11 19 -11 8 -1 -27 -19 -31 -50 -9
-16 12 -32 21 -35 21 -11 0 -219 142 -244 167 -7 7 -20 13 -28 13 -8 0 -14 5
-14 10 0 6 -7 10 -15 10 -8 0 -15 4 -15 10 0 5 -17 21 -37 35 -55 37 -105 73
-128 91 -11 8 -32 23 -47 32 -16 9 -28 22 -28 28 0 7 -6 15 -12 17 -10 4 -10
6 0 6 14 1 17 31 2 31 -5 0 -10 7 -10 15 0 8 -6 15 -12 15 -20 1 -58 36 -58
54 0 8 -4 18 -10 21 -5 3 -10 -3 -10 -14 0 -29 -21 -37 -39 -15 -9 10 -34 31
-57 47 -22 15 -50 38 -62 50 -30 32 -72 69 -112 99 -20 14 -70 60 -112 102
-41 42 -77 76 -80 76 -11 0 -196 177 -256 245 -10 11 -30 29 -44 40 -13 11
-33 32 -43 48 -9 15 -22 27 -27 27 -6 0 -36 26 -67 58 -68 68 -93 88 -103 84
-5 -1 -8 6 -8 16 0 20 -54 66 -113 96 -22 12 -33 22 -26 26 16 11 -45 45 -126
71 -38 12 -78 26 -87 30 -10 5 -26 9 -35 9 -10 0 -36 7 -59 16 -37 14 -43 21
-46 51 -2 19 0 37 4 39 26 16 -60 51 -142 59 -9 0 -20 4 -25 7 -10 6 -104 26
-164 34 -22 3 -38 0 -43 -8 -5 -8 -11 -9 -15 -3 -5 6 -49 11 -100 13 -55 2
-104 9 -120 17 -15 8 -39 12 -53 9 -19 -4 -21 -3 -10 5 8 5 12 12 10 13 -45
34 -79 41 -48 10 9 -9 9 -12 -3 -12 -16 0 -39 52 -39 89 0 13 -9 25 -22 31
l-23 10 22 -3 c12 -1 22 1 23 6 1 23 -2 27 -19 27 -11 0 -21 -4 -23 -8 -1 -5
-14 -5 -28 -1 l-25 7 26 1 c15 1 29 7 32 14 3 9 -7 11 -37 9 -31 -2 -38 -1
-26 8 11 8 -7 10 -70 9 -48 -2 -102 3 -123 10 -21 7 -47 11 -57 8 -11 -3 -36
-1 -57 3 -87 18 -115 21 -109 11 9 -13 -118 23 -145 42 l-21 15 23 4 c13 2 24
7 24 12 0 16 -90 56 -126 56 -28 0 -38 5 -42 19 -3 12 1 22 9 25 18 7 18 26 0
26 -8 0 -18 5 -21 11 -5 7 5 8 29 4 30 -6 35 -5 30 8 -3 9 -13 18 -22 21 -10
2 2 2 26 -1 38 -5 42 -3 42 16 0 13 6 21 18 21 14 0 12 4 -8 21 l-25 21 28 -5
c30 -5 46 7 22 17 -8 3 -15 11 -14 18 0 10 2 10 6 1 2 -7 13 -13 23 -13 22 0
39 22 22 28 -18 6 -14 30 8 49 28 24 25 33 -10 33 -16 0 -30 -4 -30 -10 0 -6
-9 -6 -26 0 -35 14 -44 13 -44 -6z m-1 -155 c-15 -9 -32 -2 -24 11 3 5 13 6
21 3 12 -4 13 -8 3 -14z m-1 -183 c8 -4 26 -12 40 -17 21 -7 18 -8 -16 -4 -24
3 -51 9 -60 14 -9 5 -25 12 -35 15 -10 3 -16 10 -13 15 6 8 57 -5 84 -23z m-3
-46 c7 -12 -2 -12 -30 0 -19 8 -19 9 2 9 12 1 25 -3 28 -9z m-3072 -17 c-13
-2 -33 -2 -45 0 -13 2 -3 4 22 4 25 0 35 -2 23 -4z m-1030 -40 c-7 -2 -19 -2
-25 0 -7 3 -2 5 12 5 14 0 19 -2 13 -5z m-1616 -9 c-3 -3 -12 -4 -19 -1 -8 3
-5 6 6 6 11 1 17 -2 13 -5z m1726 -1 c-13 -2 -33 -2 -45 0 -13 2 -3 4 22 4 25
0 35 -2 23 -4z m-110 -10 c-7 -2 -21 -2 -30 0 -10 3 -4 5 12 5 17 0 24 -2 18
-5z m3652 -3 c3 -5 -1 -10 -10 -10 -9 0 -13 5 -10 10 3 6 8 10 10 10 2 0 7 -4
10 -10z m1075 -22 c0 -4 -10 -8 -22 -8 -19 0 -20 -2 -8 -10 12 -8 10 -10 -8
-10 -13 0 -20 4 -17 10 3 6 -3 10 -14 10 -11 0 -22 4 -25 9 -3 5 17 8 44 8 28
0 50 -4 50 -9z m26 -56 c-10 -2 -22 0 -28 6 -6 6 0 7 19 4 21 -5 23 -7 9 -10z
m69 -32 c7 -12 -2 -12 -30 0 -19 8 -19 9 2 9 12 1 25 -3 28 -9z m515 -170 c20
-6 17 -8 -16 -6 -23 0 -40 4 -37 9 5 8 19 8 53 -3z m120 -26 c14 -3 34 -8 45
-11 22 -7 31 -9 58 -11 24 -3 22 -22 -3 -22 -11 0 -20 4 -20 10 0 5 -7 7 -15
4 -8 -4 -21 -2 -28 4 -6 5 -27 10 -46 10 -19 0 -41 8 -50 18 -15 15 -14 16 9
10 14 -4 36 -9 50 -12z m171 -144 c11 0 27 -4 37 -9 41 -22 110 -49 141 -56
32 -7 106 -45 88 -45 -20 0 -138 40 -179 61 -10 5 -29 9 -42 9 -14 0 -28 5
-31 10 -9 15 -38 12 -29 -2 4 -7 3 -10 -1 -6 -5 5 -9 20 -11 35 -1 16 0 22 3
16 2 -7 13 -13 24 -13z m44 -70 c3 -5 -1 -10 -9 -10 -9 0 -16 5 -16 10 0 6 4
10 9 10 6 0 13 -4 16 -10z m70 -20 c3 -5 -3 -10 -14 -10 -12 0 -21 5 -21 10 0
6 6 10 14 10 8 0 18 -4 21 -10z m110 -50 c3 -6 -1 -7 -9 -4 -18 7 -21 14 -7
14 6 0 13 -4 16 -10z m-6652 -27 c-7 -2 -19 -2 -25 0 -7 3 -2 5 12 5 14 0 19
-2 13 -5z m194 -19 c-3 -3 -12 -4 -19 -1 -8 3 -5 6 6 6 11 1 17 -2 13 -5z m28
-264 c3 -5 -1 -10 -10 -10 -9 0 -13 5 -10 10 3 6 8 10 10 10 2 0 7 -4 10 -10z
m-1807 -67 c-10 -2 -26 -2 -35 0 -10 3 -2 5 17 5 19 0 27 -2 18 -5z m-61 -9
c-3 -3 -12 -4 -19 -1 -8 3 -5 6 6 6 11 1 17 -2 13 -5z m1961 -1 c-10 -2 -26
-2 -35 0 -10 3 -2 5 17 5 19 0 27 -2 18 -5z m3147 -1063 c3 -5 1 -10 -4 -10
-6 0 -11 5 -11 10 0 6 2 10 4 10 3 0 8 -4 11 -10z m-201 -45 c-4 -8 -11 -12
-16 -9 -6 4 -5 10 3 15 19 12 19 11 13 -6z m-43 -66 c-12 -13 -24 -19 -28 -15
-5 4 -1 13 8 19 8 7 19 21 24 32 7 18 9 18 12 3 2 -10 -5 -27 -16 -39z m19
-28 c0 -6 -4 -13 -10 -16 -5 -3 -10 1 -10 9 0 9 5 16 10 16 6 0 10 -4 10 -9z
m30 -17 c0 -3 -10 -18 -21 -32 -12 -15 -19 -20 -15 -12 3 8 9 23 12 33 6 16
24 25 24 11z m-54 -41 c-10 -10 -19 5 -10 18 6 11 8 11 12 0 2 -7 1 -15 -2
-18z m34 -53 c0 -5 -5 -10 -11 -10 -5 0 -7 5 -4 10 3 6 8 10 11 10 2 0 4 -4 4
-10z m-50 -9 c0 -6 -11 -22 -25 -37 -14 -15 -25 -33 -25 -40 0 -8 -4 -14 -10
-14 -5 0 -10 7 -10 15 0 8 5 15 10 15 6 0 10 7 10 15 0 9 7 18 15 21 8 4 15
12 15 20 0 8 5 14 10 14 6 0 10 -4 10 -9z m30 -25 c0 -3 -4 -8 -10 -11 -5 -3
-10 -1 -10 4 0 6 5 11 10 11 6 0 10 -2 10 -4z m-30 -36 c0 -5 -4 -10 -10 -10
-5 0 -10 5 -10 10 0 6 5 10 10 10 6 0 10 -4 10 -10z m90 -67 c0 -20 -18 -16
-48 12 l-26 24 37 -11 c20 -6 37 -17 37 -25z m-40 -327 c0 -2 -9 -6 -20 -9
-11 -3 -20 -1 -20 4 0 5 9 9 20 9 11 0 20 -2 20 -4z m6203 -141 c-7 -21 -12
-19 -10 4 0 11 5 18 9 15 4 -3 5 -11 1 -19z m277 -95 c0 -18 -19 -11 -30 11
-11 19 -10 20 9 9 12 -6 21 -15 21 -20z m320 -74 c0 -11 -19 -15 -25 -6 -3 5
1 10 9 10 9 0 16 -2 16 -4z m2828 -273 c-10 -2 -26 -2 -35 0 -10 3 -2 5 17 5
19 0 27 -2 18 -5z"/>
<path d="M7470 14220 c0 -6 7 -10 15 -10 8 0 15 2 15 4 0 2 -7 6 -15 10 -8 3
-15 1 -15 -4z"/>
<path d="M7426 14191 c5 -4 23 -12 39 -15 29 -7 29 -7 10 8 -21 16 -66 23 -49
7z"/>
<path d="M7400 14157 c8 -8 30 -17 48 -21 28 -5 31 -4 20 8 -8 7 -30 17 -49
21 -30 6 -32 5 -19 -8z"/>
<path d="M7386 14133 c-21 -22 25 -53 77 -53 18 0 18 1 -4 18 -39 28 -66 41
-73 35z"/>
<path d="M7490 14070 c0 -5 9 -10 21 -10 11 0 17 5 14 10 -3 6 -13 10 -21 10
-8 0 -14 -4 -14 -10z"/>
<path d="M2203 13963 c9 -2 23 -2 30 0 6 3 -1 5 -18 5 -16 0 -22 -2 -12 -5z"/>
<path d="M528 13903 c7 -3 16 -2 19 1 4 3 -2 6 -13 5 -11 0 -14 -3 -6 -6z"/>
<path d="M2268 13773 c7 -3 16 -2 19 1 4 3 -2 6 -13 5 -11 0 -14 -3 -6 -6z"/>
<path d="M8750 13669 c45 -22 120 -34 120 -20 0 10 -63 29 -120 35 l-45 6 45
-21z"/>
<path d="M3950 13580 c-31 -5 -28 -7 28 -13 46 -6 68 -5 79 4 12 10 16 10 25
-2 8 -12 9 -12 5 1 -4 16 -68 20 -137 10z"/>
<path d="M4168 13583 c7 -3 16 -2 19 1 4 3 -2 6 -13 5 -11 0 -14 -3 -6 -6z"/>
<path d="M8958 13573 c7 -3 16 -2 19 1 4 3 -2 6 -13 5 -11 0 -14 -3 -6 -6z"/>
<path d="M8890 13540 c0 -8 61 -30 86 -30 6 0 37 -11 69 -26 32 -14 67 -23 79
-21 19 3 18 5 -9 16 -30 13 -116 40 -145 45 -8 2 -23 6 -32 10 -39 14 -48 15
-48 6z"/>
<path d="M9128 13443 c7 -3 16 -2 19 1 4 3 -2 6 -13 5 -11 0 -14 -3 -6 -6z"/>
<path d="M2818 13303 c12 -2 32 -2 45 0 12 2 2 4 -23 4 -25 0 -35 -2 -22 -4z"/>
<path d="M3240 12910 l-45 -7 42 -1 c23 -1 45 3 48 8 3 6 5 9 3 8 -2 0 -23 -4
-48 -8z"/>
<path d="M3124 12898 c33 -6 52 -6 60 2 7 7 -8 10 -49 9 l-60 -1 49 -10z"/>
<path d="M3010 12893 c0 -5 -22 -6 -50 -5 -40 3 -50 1 -50 -12 0 -30 36 -37
150 -30 61 4 110 11 110 15 0 5 -12 9 -26 9 -16 0 -23 4 -18 11 5 8 1 8 -14 0
-22 -12 -55 -5 -46 10 3 5 -9 9 -25 9 -17 0 -31 -3 -31 -7z"/>
<path d="M3199 12877 c5 -5 28 -7 52 -5 l44 3 -52 5 c-29 3 -48 1 -44 -3z"/>
<path d="M3270 12793 c-13 -15 -12 -16 4 -10 10 4 20 7 22 7 2 0 4 5 4 10 0
15 -13 12 -30 -7z"/>
<path d="M3150 12773 c40 -17 53 -20 101 -23 55 -3 66 -1 50 9 -7 5 -21 7 -30
4 -9 -2 -30 3 -46 11 -17 9 -48 16 -70 15 l-40 -1 35 -15z"/>
<path d="M3368 12683 c6 -2 18 -2 25 0 6 3 1 5 -13 5 -14 0 -19 -2 -12 -5z"/>
<path d="M3425 12670 c11 -5 27 -9 35 -9 9 0 8 4 -5 9 -11 5 -27 9 -35 9 -9 0
-8 -4 5 -9z"/>
<path d="M5605 11840 c3 -5 8 -10 11 -10 2 0 4 5 4 10 0 6 -5 10 -11 10 -5 0
-7 -4 -4 -10z"/>
<path d="M5500 11810 c0 -5 5 -10 10 -10 6 0 10 5 10 10 0 6 -4 10 -10 10 -5
0 -10 -4 -10 -10z"/>
<path d="M5575 11810 c3 -5 8 -10 11 -10 2 0 4 5 4 10 0 6 -5 10 -11 10 -5 0
-7 -4 -4 -10z"/>
<path d="M5540 11780 c0 -5 5 -10 11 -10 5 0 7 5 4 10 -3 6 -8 10 -11 10 -2 0
-4 -4 -4 -10z"/>
<path d="M5582 11756 c7 -8 15 -12 17 -11 5 6 -10 25 -20 25 -5 0 -4 -6 3 -14z"/>
<path d="M5560 11720 c0 -5 5 -10 10 -10 6 0 10 5 10 10 0 6 -4 10 -10 10 -5
0 -10 -4 -10 -10z"/>
<path d="M5535 11691 c-6 -10 35 -44 44 -36 2 3 -5 14 -17 25 -11 11 -24 16
-27 11z"/>
<path d="M5590 11689 c0 -5 5 -7 10 -4 6 3 10 8 10 11 0 2 -4 4 -10 4 -5 0
-10 -5 -10 -11z"/>
<path d="M5505 11671 c-3 -5 -1 -12 5 -16 5 -3 10 1 10 9 0 18 -6 21 -15 7z"/>
<path d="M5610 11665 c0 -8 5 -15 10 -15 6 0 10 7 10 15 0 8 -4 15 -10 15 -5
0 -10 -7 -10 -15z"/>
<path d="M5350 11635 c7 -9 15 -13 17 -11 7 7 -7 26 -19 26 -6 0 -6 -6 2 -15z"/>
<path d="M5540 11630 c0 -5 5 -10 11 -10 5 0 7 5 4 10 -3 6 -8 10 -11 10 -2 0
-4 -4 -4 -10z"/>
<path d="M5298 11583 c7 -3 16 -2 19 1 4 3 -2 6 -13 5 -11 0 -14 -3 -6 -6z"/>
<path d="M5352 11574 c-7 -8 -8 -14 -3 -14 10 0 25 19 20 25 -2 1 -10 -3 -17
-11z"/>
<path d="M5550 11570 c0 -5 5 -10 10 -10 6 0 10 5 10 10 0 6 -4 10 -10 10 -5
0 -10 -4 -10 -10z"/>
<path d="M5510 11564 c0 -17 18 -36 30 -32 7 2 4 10 -9 22 -12 11 -21 15 -21
10z"/>
<path d="M5635 11510 c-3 -5 -1 -10 4 -10 6 0 11 5 11 10 0 6 -2 10 -4 10 -3
0 -8 -4 -11 -10z"/>
<path d="M5690 11411 c0 -6 5 -13 10 -16 6 -3 10 1 10 9 0 9 -4 16 -10 16 -5
0 -10 -4 -10 -9z"/>
<path d="M5670 11380 c0 -5 5 -10 11 -10 5 0 7 5 4 10 -3 6 -8 10 -11 10 -2 0
-4 -4 -4 -10z"/>
<path d="M5620 11220 c0 -5 5 -10 11 -10 5 0 7 5 4 10 -3 6 -8 10 -11 10 -2 0
-4 -4 -4 -10z"/>
<path d="M328 10973 c7 -3 16 -2 19 1 4 3 -2 6 -13 5 -11 0 -14 -3 -6 -6z"/>
<path d="M458 10963 c7 -3 16 -2 19 1 4 3 -2 6 -13 5 -11 0 -14 -3 -6 -6z"/>
<path d="M11931 10944 c-6 -14 -15 -23 -20 -19 -5 3 -12 2 -15 -3 -2 -4 4 -13
15 -20 16 -10 19 -9 19 4 0 11 8 15 27 12 15 -2 28 2 30 10 3 6 0 12 -5 12 -6
0 -17 6 -25 14 -12 13 -16 12 -26 -10z"/>
<path d="M493 10933 c9 -2 25 -2 35 0 9 3 1 5 -18 5 -19 0 -27 -2 -17 -5z"/>
<path d="M12026 10889 c3 -5 19 -9 36 -9 17 0 28 3 25 6 -10 11 -67 13 -61 3z"/>
<path d="M11860 10881 c0 -6 4 -13 10 -16 6 -3 7 1 4 9 -7 18 -14 21 -14 7z"/>
<path d="M11958 10883 c7 -3 16 -2 19 1 4 3 -2 6 -13 5 -11 0 -14 -3 -6 -6z"/>
<path d="M12108 10863 c7 -3 16 -2 19 1 4 3 -2 6 -13 5 -11 0 -14 -3 -6 -6z"/>
<path d="M11750 10791 c0 -9 62 -22 70 -14 8 7 -24 23 -47 23 -13 0 -23 -4
-23 -9z"/>
<path d="M12658 10783 c6 -2 18 -2 25 0 6 3 1 5 -13 5 -14 0 -19 -2 -12 -5z"/>
<path d="M11736 10746 c11 -8 34 -18 50 -21 l29 -6 -24 20 c-13 12 -35 21 -49
21 -26 0 -26 0 -6 -14z"/>
<path d="M11825 10710 c-3 -5 -1 -10 4 -10 6 0 11 5 11 10 0 6 -2 10 -4 10 -3
0 -8 -4 -11 -10z"/>
<path d="M6706 10693 c-3 -3 -20 -9 -38 -13 l-33 -8 41 -1 c25 -1 51 -9 67
-21 44 -35 65 -22 24 16 -25 23 -52 35 -61 27z"/>
<path d="M6970 10685 c14 -7 27 -11 30 -9 6 7 -22 24 -40 23 -9 0 -5 -6 10
-14z"/>
<path d="M6790 10676 c6 -8 18 -12 26 -9 19 7 7 23 -18 23 -17 0 -18 -3 -8
-14z"/>
<path d="M5178 10673 c-10 -3 -18 -9 -18 -14 0 -12 27 -12 35 1 9 15 25 12 25
-5 0 -17 25 -20 35 -5 3 6 15 10 25 10 14 0 18 -5 13 -17 -5 -15 -3 -16 8 -5
19 18 29 15 29 -10 0 -20 1 -20 19 -4 12 11 20 13 23 6 4 -13 93 -20 131 -9
38 11 65 38 47 49 -14 8 -340 11 -372 3z"/>
<path d="M6226 10656 c21 -15 30 -14 19 3 -3 6 -14 11 -23 11 -13 0 -13 -2 4
-14z"/>
<path d="M6668 10653 c6 -2 18 -2 25 0 6 3 1 5 -13 5 -14 0 -19 -2 -12 -5z"/>
<path d="M15580 10601 c0 -13 32 -23 39 -12 3 5 20 11 36 14 19 2 11 5 -22 6
-29 0 -53 -3 -53 -8z"/>
<path d="M15448 10593 c7 -3 16 -2 19 1 4 3 -2 6 -13 5 -11 0 -14 -3 -6 -6z"/>
<path d="M6870 10561 c0 -7 7 -14 15 -17 8 -4 15 -12 15 -19 0 -6 34 -33 75
-58 41 -26 75 -45 75 -42 0 9 -53 57 -88 80 -21 13 -49 34 -64 45 -16 12 -28
17 -28 11z"/>
<path d="M7078 10463 c7 -3 16 -2 19 1 4 3 -2 6 -13 5 -11 0 -14 -3 -6 -6z"/>
<path d="M7095 10440 c3 -5 21 -10 38 -10 24 0 28 3 17 10 -20 13 -63 13 -55
0z"/>
<path d="M7190 10440 c-13 -8 -12 -10 3 -10 9 0 17 5 17 10 0 12 -1 12 -20 0z"/>
<path d="M13880 9921 c0 -5 -3 -18 -6 -28 -5 -16 -4 -16 10 1 18 23 20 36 6
36 -5 0 -10 -4 -10 -9z"/>
</g>
</svg>
